<svg width="22" height="24" viewBox="0 0 22 24" fill="none" xmlns="http://www.w3.org/2000/svg">
<path d="M17.799 12C18.673 11.896 19.421 11.728 19.879 11.464C20.7902 10.9298 21.4531 10.0569 21.7231 9.03567C21.9931 8.01449 21.8482 6.92797 21.3201 6.01322C20.7919 5.09847 19.9234 4.42976 18.904 4.153C17.8847 3.87625 16.7972 4.01393 15.879 4.536C15.421 4.8 14.901 5.364 14.375 6.07C14.723 5.26 14.951 4.528 14.951 4C14.951 2.93913 14.5296 1.92172 13.7794 1.17157C13.0293 0.421427 12.0118 0 10.951 0C9.89011 0 8.8727 0.421427 8.12255 1.17157C7.37241 1.92172 6.95098 2.93913 6.95098 4C6.95098 4.528 7.17898 5.26 7.52698 6.07C7.00098 5.364 6.48098 4.8 6.02298 4.536C5.10475 4.01393 4.01729 3.87625 2.99792 4.153C1.97855 4.42976 1.11003 5.09847 0.58188 6.01322C0.0537335 6.92797 -0.0911568 8.01449 0.178828 9.03567C0.448812 10.0569 1.11175 10.9298 2.02298 11.464C2.48098 11.728 3.22898 11.896 4.10298 12C3.22898 12.104 2.48098 12.272 2.02298 12.536C1.5644 12.7967 1.16192 13.1456 0.838709 13.5625C0.515502 13.9794 0.277953 14.4561 0.139738 14.9652C0.00152333 15.4743 -0.0346275 16.0057 0.0333669 16.5288C0.101361 17.052 0.272158 17.5565 0.535924 18.0133C0.79969 18.4702 1.15121 18.8703 1.57026 19.1907C1.98931 19.5112 2.4676 19.7456 2.97759 19.8804C3.48759 20.0152 4.01922 20.0479 4.54188 19.9764C5.06454 19.9049 5.5679 19.7308 6.02298 19.464C6.48098 19.2 7.00098 18.636 7.52698 17.93C7.17898 18.74 6.95098 19.472 6.95098 20C6.95098 21.0609 7.37241 22.0783 8.12255 22.8284C8.8727 23.5786 9.89011 24 10.951 24C12.0118 24 13.0293 23.5786 13.7794 22.8284C14.5296 22.0783 14.951 21.0609 14.951 20C14.951 19.472 14.723 18.74 14.375 17.93C14.901 18.636 15.421 19.2 15.879 19.464C16.3341 19.7308 16.8374 19.9049 17.3601 19.9764C17.8827 20.0479 18.4144 20.0152 18.9244 19.8804C19.4344 19.7456 19.9126 19.5112 20.3317 19.1907C20.7507 18.8703 21.1023 18.4702 21.366 18.0133C21.6298 17.5565 21.8006 17.052 21.8686 16.5288C21.9366 16.0057 21.9004 15.4743 21.7622 14.9652C21.624 14.4561 21.3865 13.9794 21.0632 13.5625C20.74 13.1456 20.3376 12.7967 19.879 12.536C19.421 12.272 18.673 12.104 17.799 12ZM12.951 4C12.9282 4.13815 12.8981 4.275 12.861 4.41C12.7823 4.67667 12.6603 4.99933 12.495 5.378C12.1139 6.2153 11.6886 7.03178 11.221 7.824L10.951 8.284L10.681 7.824C10.2133 7.03178 9.78807 6.2153 9.40698 5.378C9.26421 5.06357 9.14196 4.74023 9.04098 4.41C9.00382 4.275 8.97378 4.13815 8.95098 4C8.95098 3.46957 9.16169 2.96086 9.53677 2.58579C9.91184 2.21071 10.4205 2 10.951 2C11.4814 2 11.9901 2.21071 12.3652 2.58579C12.7403 2.96086 12.951 3.46957 12.951 4ZM2.29098 7C2.5562 6.54065 2.99303 6.20548 3.50538 6.0682C4.01773 5.93093 4.56362 6.0028 5.02298 6.268C5.1319 6.35711 5.23605 6.45191 5.33498 6.552C5.52431 6.752 5.74165 7.01867 5.98698 7.352C6.47698 8.018 6.99098 8.846 7.47098 9.678L7.73098 10.142L7.20098 10.146C6.28017 10.1549 5.35954 10.1148 4.44298 10.026C4.09976 9.99271 3.75905 9.93726 3.42298 9.86C3.2875 9.82437 3.15398 9.78164 3.02298 9.732C2.56363 9.46678 2.22846 9.02994 2.09118 8.5176C1.9539 8.00525 2.02577 7.45936 2.29098 7ZM5.02298 17.732C4.56386 17.993 4.02013 18.0619 3.51045 17.9235C3.00076 17.7851 2.5665 17.4508 2.30243 16.9934C2.03836 16.536 1.96591 15.9928 2.1009 15.4822C2.23589 14.9716 2.56736 14.5351 3.02298 14.268L3.11698 14.228C3.19031 14.2013 3.29231 14.172 3.42298 14.14C3.69231 14.076 4.03231 14.0207 4.44298 13.974C5.35954 13.8852 6.28017 13.8451 7.20098 13.854C7.38098 13.854 7.55831 13.8553 7.73298 13.858L7.47098 14.322C6.99098 15.154 6.47698 15.982 5.98698 16.648C5.78645 16.9285 5.56799 17.1957 5.33298 17.448C5.23469 17.548 5.13122 17.6428 5.02298 17.732ZM12.951 20C12.951 20.5304 12.7403 21.0391 12.3652 21.4142C11.9901 21.7893 11.4814 22 10.951 22C10.4205 22 9.91184 21.7893 9.53677 21.4142C9.16169 21.0391 8.95098 20.5304 8.95098 20C8.97371 19.8612 9.00375 19.7237 9.04098 19.588C9.11831 19.324 9.24031 19.002 9.40698 18.622C9.73898 17.866 10.199 17.006 10.681 16.176L10.951 15.716L11.221 16.176C11.703 17.006 12.161 17.866 12.495 18.622C12.6603 19.002 12.7823 19.3247 12.861 19.59C12.902 19.724 12.9321 19.8611 12.951 20ZM19.611 7C19.8762 7.45936 19.9481 8.00525 19.8108 8.5176C19.6735 9.02994 19.3383 9.46678 18.879 9.732C18.748 9.78164 18.6145 9.82437 18.479 9.86C18.2096 9.924 17.8696 9.97933 17.459 10.026C16.635 10.116 15.663 10.148 14.701 10.146C14.521 10.146 14.3436 10.1447 14.169 10.142L14.431 9.678C14.911 8.846 15.425 8.018 15.915 7.352C16.1155 7.07152 16.334 6.80429 16.569 6.552C16.6623 6.45333 16.7383 6.38 16.797 6.332L16.879 6.268C17.3383 6.0028 17.8842 5.93093 18.3966 6.0682C18.9089 6.20548 19.3458 6.54065 19.611 7ZM16.879 17.732C16.7708 17.6435 16.6673 17.5494 16.569 17.45C16.334 17.1977 16.1155 16.9305 15.915 16.65C15.3794 15.9002 14.884 15.1224 14.431 14.32L14.171 13.856L14.701 13.852C15.661 13.85 16.635 13.882 17.459 13.972C17.8696 14.0187 18.2096 14.074 18.479 14.138C18.6096 14.17 18.7116 14.1993 18.785 14.226L18.881 14.266C19.1103 14.3964 19.3115 14.5708 19.4731 14.7793C19.6347 14.9877 19.7535 15.2261 19.8226 15.4806C19.8917 15.7352 19.9098 16.0009 19.8758 16.2624C19.8418 16.524 19.7564 16.7762 19.6245 17.0047C19.4926 17.2331 19.3169 17.4332 19.1073 17.5934C18.8978 17.7536 18.6587 17.8708 18.4037 17.9382C18.1487 18.0056 17.8829 18.0219 17.6215 17.9862C17.3602 17.9505 17.1085 17.8634 16.881 17.73L16.879 17.732ZM10.951 14C10.4205 14 9.91184 13.7893 9.53677 13.4142C9.16169 13.0391 8.95098 12.5304 8.95098 12C8.95098 11.4696 9.16169 10.9609 9.53677 10.5858C9.91184 10.2107 10.4205 10 10.951 10C11.4814 10 11.9901 10.2107 12.3652 10.5858C12.7403 10.9609 12.951 11.4696 12.951 12C12.951 12.5304 12.7403 13.0391 12.3652 13.4142C11.9901 13.7893 11.4814 14 10.951 14Z" fill="white"/>
</svg>
