<svg width="15" height="16" viewBox="0 0 15 16" fill="none" xmlns="http://www.w3.org/2000/svg">
<path d="M11.866 8C12.4487 7.93067 12.9473 7.81867 13.2527 7.64267C13.8601 7.28653 14.3021 6.70457 14.4821 6.02378C14.6621 5.34299 14.5655 4.61865 14.2134 4.00882C13.8613 3.39898 13.2823 2.95317 12.6027 2.76867C11.9231 2.58417 11.1981 2.67596 10.586 3.024C10.2807 3.2 9.93398 3.576 9.58332 4.04667C9.81532 3.50667 9.96732 3.01867 9.96732 2.66667C9.96732 1.95942 9.68637 1.28115 9.18627 0.781048C8.68617 0.280951 8.0079 0 7.30065 0C6.59341 0 5.91513 0.280951 5.41503 0.781048C4.91494 1.28115 4.63399 1.95942 4.63399 2.66667C4.63399 3.01867 4.78599 3.50667 5.01799 4.04667C4.66732 3.576 4.32065 3.2 4.01532 3.024C3.40316 2.67596 2.67819 2.58417 1.99861 2.76867C1.31903 2.95317 0.740017 3.39898 0.38792 4.00882C0.0358223 4.61865 -0.0607712 5.34299 0.119218 6.02378C0.299208 6.70457 0.741168 7.28653 1.34865 7.64267C1.65399 7.81867 2.15265 7.93067 2.73532 8C2.15265 8.06933 1.65399 8.18133 1.34865 8.35733C1.04293 8.53115 0.77461 8.76373 0.559139 9.04167C0.343668 9.31961 0.185302 9.63743 0.0931589 9.97682C0.00101555 10.3162 -0.023085 10.6705 0.0222446 11.0192C0.0675742 11.368 0.181439 11.7043 0.357282 12.0089C0.533126 12.3134 0.767476 12.5802 1.04684 12.7938C1.3262 13.0075 1.64506 13.1637 1.98506 13.2536C2.32506 13.3435 2.67948 13.3652 3.02792 13.3176C3.37636 13.27 3.71193 13.1539 4.01532 12.976C4.32065 12.8 4.66732 12.424 5.01799 11.9533C4.78599 12.4933 4.63399 12.9813 4.63399 13.3333C4.63399 14.0406 4.91494 14.7189 5.41503 15.219C5.91513 15.719 6.59341 16 7.30065 16C8.0079 16 8.68617 15.719 9.18627 15.219C9.68637 14.7189 9.96732 14.0406 9.96732 13.3333C9.96732 12.9813 9.81532 12.4933 9.58332 11.9533C9.93398 12.424 10.2807 12.8 10.586 12.976C10.8894 13.1539 11.2249 13.27 11.5734 13.3176C11.9218 13.3652 12.2762 13.3435 12.6162 13.2536C12.9562 13.1637 13.2751 13.0075 13.5545 12.7938C13.8338 12.5802 14.0682 12.3134 14.244 12.0089C14.4199 11.7043 14.5337 11.368 14.5791 11.0192C14.6244 10.6705 14.6003 10.3162 14.5081 9.97682C14.416 9.63743 14.2576 9.31961 14.0422 9.04167C13.8267 8.76373 13.5584 8.53115 13.2527 8.35733C12.9473 8.18133 12.4487 8.06933 11.866 8ZM8.63399 2.66667C8.61878 2.75877 8.59876 2.85 8.57398 2.94C8.52154 3.11778 8.44021 3.33289 8.32999 3.58533C8.07592 4.14353 7.79241 4.68785 7.48065 5.216L7.30065 5.52267L7.12065 5.216C6.80889 4.68785 6.52538 4.14353 6.27132 3.58533C6.17614 3.37571 6.09464 3.16015 6.02732 2.94C6.00255 2.85 5.98252 2.75877 5.96732 2.66667C5.96732 2.31304 6.10779 1.97391 6.35784 1.72386C6.60789 1.47381 6.94703 1.33333 7.30065 1.33333C7.65427 1.33333 7.99341 1.47381 8.24346 1.72386C8.49351 1.97391 8.63399 2.31304 8.63399 2.66667ZM1.52732 4.66667C1.70414 4.36044 1.99536 4.13699 2.33692 4.04547C2.67848 3.95395 3.04241 4.00186 3.34865 4.17867C3.42127 4.23807 3.4907 4.30127 3.55665 4.368C3.68287 4.50133 3.82776 4.67911 3.99132 4.90133C4.31799 5.34533 4.66065 5.89733 4.98065 6.452L5.15399 6.76133L4.80065 6.764C4.18678 6.76991 3.57302 6.74321 2.96199 6.684C2.73317 6.66181 2.50603 6.62484 2.28199 6.57333C2.19166 6.54958 2.10265 6.52109 2.01532 6.488C1.70909 6.31118 1.48564 6.01996 1.39412 5.6784C1.3026 5.33683 1.35052 4.97291 1.52732 4.66667ZM3.34865 11.8213C3.04257 11.9954 2.68009 12.0412 2.3403 11.949C2.00051 11.8567 1.711 11.6338 1.53495 11.3289C1.3589 11.024 1.31061 10.6618 1.4006 10.3214C1.4906 9.98105 1.71158 9.69007 2.01532 9.512L2.07799 9.48533C2.12687 9.46756 2.19487 9.448 2.28199 9.42667C2.46154 9.384 2.68821 9.34711 2.96199 9.316C3.57302 9.25679 4.18678 9.23009 4.80065 9.236C4.92065 9.236 5.03887 9.23689 5.15532 9.23867L4.98065 9.548C4.66065 10.1027 4.31799 10.6547 3.99132 11.0987C3.85763 11.2857 3.71199 11.4638 3.55532 11.632C3.4898 11.6987 3.42081 11.7619 3.34865 11.8213ZM8.63399 13.3333C8.63399 13.687 8.49351 14.0261 8.24346 14.2761C7.99341 14.5262 7.65427 14.6667 7.30065 14.6667C6.94703 14.6667 6.60789 14.5262 6.35784 14.2761C6.10779 14.0261 5.96732 13.687 5.96732 13.3333C5.98247 13.2408 6.0025 13.1491 6.02732 13.0587C6.07887 12.8827 6.16021 12.668 6.27132 12.4147C6.49265 11.9107 6.79932 11.3373 7.12065 10.784L7.30065 10.4773L7.48065 10.784C7.80199 11.3373 8.10732 11.9107 8.32999 12.4147C8.44021 12.668 8.52154 12.8831 8.57398 13.06C8.60132 13.1493 8.62138 13.2408 8.63399 13.3333ZM13.074 4.66667C13.2508 4.97291 13.2987 5.33683 13.2072 5.6784C13.1157 6.01996 12.8922 6.31118 12.586 6.488C12.4987 6.52109 12.4096 6.54958 12.3193 6.57333C12.1398 6.616 11.9131 6.65289 11.6393 6.684C11.09 6.744 10.442 6.76533 9.80065 6.764C9.68065 6.764 9.56243 6.76311 9.44599 6.76133L9.62065 6.452C9.94065 5.89733 10.2833 5.34533 10.61 4.90133C10.7437 4.71435 10.8893 4.5362 11.046 4.368C11.1082 4.30222 11.1589 4.25333 11.198 4.22133L11.2527 4.17867C11.5589 4.00186 11.9228 3.95395 12.2644 4.04547C12.6059 4.13699 12.8972 4.36044 13.074 4.66667ZM11.2527 11.8213C11.1805 11.7623 11.1115 11.6996 11.046 11.6333C10.8893 11.4651 10.7437 11.287 10.61 11.1C10.2529 10.6001 9.92267 10.0816 9.62065 9.54667L9.44732 9.23733L9.80065 9.23467C10.4407 9.23333 11.09 9.25467 11.6393 9.31467C11.9131 9.34578 12.1398 9.38267 12.3193 9.42533C12.4064 9.44667 12.4744 9.46622 12.5233 9.484L12.5873 9.51067C12.7402 9.59758 12.8743 9.71386 12.9821 9.85283C13.0898 9.9918 13.169 10.1507 13.2151 10.3204C13.2611 10.4901 13.2732 10.6672 13.2505 10.8416C13.2279 11.016 13.1709 11.1842 13.083 11.3364C12.9951 11.4887 12.8779 11.6221 12.7382 11.7289C12.5985 11.8357 12.4391 11.9139 12.2691 11.9588C12.0991 12.0037 11.9219 12.0146 11.7477 11.9908C11.5735 11.967 11.4057 11.9089 11.254 11.82L11.2527 11.8213ZM7.30065 9.33333C6.94703 9.33333 6.60789 9.19286 6.35784 8.94281C6.10779 8.69276 5.96732 8.35362 5.96732 8C5.96732 7.64638 6.10779 7.30724 6.35784 7.05719C6.60789 6.80714 6.94703 6.66667 7.30065 6.66667C7.65427 6.66667 7.99341 6.80714 8.24346 7.05719C8.49351 7.30724 8.63399 7.64638 8.63399 8C8.63399 8.35362 8.49351 8.69276 8.24346 8.94281C7.99341 9.19286 7.65427 9.33333 7.30065 9.33333Z" fill="white"/>
</svg>
