<svg width="704" height="247" viewBox="0 0 704 247" fill="none" xmlns="http://www.w3.org/2000/svg">
<path d="M267.5 120C267.5 184.625 208.463 237.5 135 237.5C61.5373 237.5 2.5 184.625 2.5 120C2.5 55.3752 61.5373 2.5 135 2.5C208.463 2.5 267.5 55.3752 267.5 120Z" stroke="#F34C0B" stroke-width="5"/>
<path d="M242.5 120C242.5 170.755 194.727 212.5 135 212.5C75.2728 212.5 27.5 170.755 27.5 120C27.5 69.2451 75.2728 27.5 135 27.5C194.727 27.5 242.5 69.2451 242.5 120Z" stroke="#F34C0B" stroke-width="5"/>
<path d="M255 120C255 177.408 201.894 225 135 225C68.1061 225 15 177.408 15 120C15 62.5915 68.1061 15 135 15C201.894 15 255 62.5915 255 120Z" stroke="#F34C0B" stroke-width="10"/>
<path fill-rule="evenodd" clip-rule="evenodd" d="M119 162.272L181.909 155.807L341.213 246.894L346.177 238.213L194.874 151.701L194.739 151.284L346.213 237.894L348.695 233.554L192.446 144.213L171.942 81L119 162.272Z" fill="#F34C0B"/>
<path d="M334.281 161.984C334.281 169.953 333.328 175.391 331.422 178.297C327.922 183.609 319.188 186.266 305.219 186.266C298.906 186.266 294.047 185.781 290.641 184.812C285.203 183.25 281.672 180.266 280.047 175.859C279.234 173.703 278.828 169.859 278.828 164.328C278.828 163.047 278.875 161.141 278.969 158.609C279.062 156.078 279.109 154.188 279.109 152.938C279.109 149.312 278.938 143.875 278.594 136.625C278.25 129.375 278.078 123.953 278.078 120.359C278.078 119.609 278.406 119.234 279.062 119.234C280.969 119.234 283.844 119.312 287.688 119.469C291.562 119.625 294.453 119.703 296.359 119.703C297.141 119.703 297.531 120.047 297.531 120.734C297.531 124.859 297.391 131.047 297.109 139.297C296.859 147.516 296.734 153.688 296.734 157.812C296.734 162.719 297.25 166.031 298.281 167.75C299.656 170.094 302.531 171.266 306.906 171.266C313.312 171.266 316.516 168.156 316.516 161.938C316.516 157.406 316.406 150.609 316.188 141.547C315.969 132.484 315.859 125.688 315.859 121.156C315.859 120.188 316.25 119.703 317.031 119.703C318.875 119.703 321.656 119.625 325.375 119.469C329.094 119.312 331.875 119.234 333.719 119.234C334.625 119.234 335.078 119.609 335.078 120.359C335.078 123.953 334.922 129.375 334.609 136.625C334.328 143.875 334.188 149.312 334.188 152.938C334.188 153.938 334.203 155.453 334.234 157.484C334.266 159.484 334.281 160.984 334.281 161.984ZM362.594 150.359C362.594 154.047 362.688 159.594 362.875 167C363.062 174.406 363.156 179.953 363.156 183.641C363.156 184.266 363.016 184.656 362.734 184.812C362.672 184.844 362.266 184.906 361.516 185C359.484 185.25 356.766 185.375 353.359 185.375C348.797 185.375 345.891 185.25 344.641 185C343.734 184.812 343.281 184.328 343.281 183.547C343.281 184.047 343.422 181.297 343.703 175.297C344.266 162.641 344.547 154.328 344.547 150.359C344.547 147.016 344.438 142 344.219 135.312C344 128.625 343.891 123.609 343.891 120.266C343.891 119.578 344.25 119.234 344.969 119.234C345.938 119.234 347.391 119.281 349.328 119.375C351.297 119.469 352.766 119.516 353.734 119.516C354.703 119.516 356.125 119.469 358 119.375C359.906 119.281 361.344 119.234 362.312 119.234C363.219 119.234 363.672 119.578 363.672 120.266C363.672 123.609 363.484 128.625 363.109 135.312C362.766 142 362.594 147.016 362.594 150.359ZM417.812 133.578C417.812 134.203 417.469 134.516 416.781 134.516C415.594 134.516 410.891 134.281 402.672 133.812C402.484 141.719 402.391 147.234 402.391 150.359C402.391 154.047 402.531 159.594 402.812 167C403.125 174.406 403.281 179.953 403.281 183.641C403.281 184.234 403.141 184.609 402.859 184.766C402.766 184.828 402.328 184.906 401.547 185C399.672 185.25 396.922 185.375 393.297 185.375C389.266 185.375 386.438 185.25 384.812 185C383.938 184.844 383.5 184.359 383.5 183.547C383.5 179.859 383.656 174.328 383.969 166.953C384.281 159.578 384.438 154.047 384.438 150.359C384.438 147.922 384.312 142.484 384.062 134.047C377.812 134.672 372.828 134.984 369.109 134.984C368.609 134.984 368.359 134.828 368.359 134.516C368.359 134.109 368.578 132.906 369.016 130.906C369.516 128.719 369.797 127.391 369.859 126.922C369.953 125.453 370.062 123.984 370.188 122.516C370.406 120.172 370.781 119 371.312 119C371.375 119 371.594 119.016 371.969 119.047C377.031 119.703 384.516 120.031 394.422 120.031C397.234 120.031 402.422 119.734 409.984 119.141C414.047 118.828 416.094 118.672 416.125 118.672C416.75 118.672 417.109 118.719 417.203 118.812C417.297 118.875 417.359 119.172 417.391 119.703C417.391 120.547 417.359 121.719 417.297 123.219C417.234 124.875 417.203 126.047 417.203 126.734C417.203 127.516 417.297 128.672 417.484 130.203C417.703 131.703 417.812 132.828 417.812 133.578ZM478.844 161.984C478.844 169.953 477.891 175.391 475.984 178.297C472.484 183.609 463.75 186.266 449.781 186.266C443.469 186.266 438.609 185.781 435.203 184.812C429.766 183.25 426.234 180.266 424.609 175.859C423.797 173.703 423.391 169.859 423.391 164.328C423.391 163.047 423.438 161.141 423.531 158.609C423.625 156.078 423.672 154.188 423.672 152.938C423.672 149.312 423.5 143.875 423.156 136.625C422.812 129.375 422.641 123.953 422.641 120.359C422.641 119.609 422.969 119.234 423.625 119.234C425.531 119.234 428.406 119.312 432.25 119.469C436.125 119.625 439.016 119.703 440.922 119.703C441.703 119.703 442.094 120.047 442.094 120.734C442.094 124.859 441.953 131.047 441.672 139.297C441.422 147.516 441.297 153.688 441.297 157.812C441.297 162.719 441.812 166.031 442.844 167.75C444.219 170.094 447.094 171.266 451.469 171.266C457.875 171.266 461.078 168.156 461.078 161.938C461.078 157.406 460.969 150.609 460.75 141.547C460.531 132.484 460.422 125.688 460.422 121.156C460.422 120.188 460.812 119.703 461.594 119.703C463.438 119.703 466.219 119.625 469.938 119.469C473.656 119.312 476.438 119.234 478.281 119.234C479.188 119.234 479.641 119.609 479.641 120.359C479.641 123.953 479.484 129.375 479.172 136.625C478.891 143.875 478.75 149.312 478.75 152.938C478.75 153.938 478.766 155.453 478.797 157.484C478.828 159.484 478.844 160.984 478.844 161.984ZM550.844 120.688C550.844 124.25 550.688 129.609 550.375 136.766C550.094 143.891 549.953 149.25 549.953 152.844V183.734C549.953 184.578 549.5 185 548.594 185C547.844 185 546.703 185.031 545.172 185.094C543.672 185.156 542.547 185.188 541.797 185.188C540.984 185.188 539.766 185.125 538.141 185C536.516 184.875 535.297 184.812 534.484 184.812C533.922 184.812 533.25 184.297 532.469 183.266C530.219 180.234 525.156 173.516 517.281 163.109C515.125 160.203 511.844 155.922 507.438 150.266C507.312 150.078 507.078 149.891 506.734 149.703C506.484 149.922 506.359 150.266 506.359 150.734C506.359 154.359 506.453 159.797 506.641 167.047C506.859 174.297 506.969 179.734 506.969 183.359C506.969 184.453 506.547 185 505.703 185H489.484C488.578 185 488.125 184.516 488.125 183.547C488.125 180.172 488.281 175.078 488.594 168.266C488.938 161.453 489.109 156.344 489.109 152.938C489.109 149.344 488.953 143.969 488.641 136.812C488.359 129.656 488.219 124.297 488.219 120.734C488.219 120.047 488.828 119.703 490.047 119.703C491.859 119.703 494.094 119.578 496.75 119.328C497.375 119.266 498.609 119.062 500.453 118.719C502.016 118.438 503.25 118.297 504.156 118.297C504.531 118.297 505.109 118.828 505.891 119.891L523.375 143.844C524.938 146 527.297 149.156 530.453 153.312C531.234 154.281 531.906 154.766 532.469 154.766C532.875 154.766 533.078 153.547 533.078 151.109C533.078 147.828 532.891 142.891 532.516 136.297C532.172 129.703 532 124.75 532 121.438C532 120.281 532.328 119.703 532.984 119.703C534.859 119.703 537.688 119.625 541.469 119.469C545.25 119.312 548.078 119.234 549.953 119.234C550.547 119.234 550.844 119.719 550.844 120.688ZM621.25 183.5C621.312 184.344 620.875 184.766 619.938 184.766C619.344 184.766 617.625 184.422 614.781 183.734C611.969 183.047 610.234 182.578 609.578 182.328C603.047 184.891 596.781 186.172 590.781 186.172C581.125 186.172 573.203 182.953 567.016 176.516C560.891 170.172 557.828 162.156 557.828 152.469C557.828 142.562 560.797 134.344 566.734 127.812C572.859 121.062 580.812 117.688 590.594 117.688C595.344 117.688 599.812 118.594 604 120.406C608.531 122.406 612.094 125.219 614.688 128.844C615.219 129.594 615.484 130.125 615.484 130.438C615.484 131.438 614.078 133.688 611.266 137.188C608.484 140.656 606.688 142.391 605.875 142.391C605.688 142.391 604.969 141.75 603.719 140.469C602.188 138.938 600.625 137.75 599.031 136.906C596.656 135.625 594.031 134.984 591.156 134.984C586.469 134.984 582.75 136.734 580 140.234C577.438 143.453 576.156 147.469 576.156 152.281C576.156 157.375 577.484 161.406 580.141 164.375C582.891 167.438 586.781 168.969 591.812 168.969C595 168.969 598.562 168.172 602.5 166.578C602.406 165.547 602.125 162.922 601.656 158.703C601.25 155.453 601.047 152.828 601.047 150.828C601.047 150.234 601.25 149.875 601.656 149.75C601.812 149.688 602.062 149.656 602.406 149.656C603.312 149.656 604.672 149.75 606.484 149.938C608.328 150.094 609.719 150.172 610.656 150.172C611.656 150.172 613.156 150.109 615.156 149.984C617.156 149.828 618.656 149.75 619.656 149.75C620.438 149.75 620.828 150.266 620.828 151.297C620.828 152.797 620.734 155.062 620.547 158.094C620.391 161.125 620.312 163.391 620.312 164.891C620.312 168.922 620.609 174.953 621.203 182.984L621.25 183.5ZM692.922 152.188C692.922 161.938 689.812 170.109 683.594 176.703C677.25 183.391 669.219 186.734 659.5 186.734C649.844 186.734 641.828 183.359 635.453 176.609C629.203 170.016 626.078 161.875 626.078 152.188C626.078 142.469 629.203 134.297 635.453 127.672C641.828 120.891 649.844 117.5 659.5 117.5C669.094 117.5 677.094 120.891 683.5 127.672C689.781 134.359 692.922 142.531 692.922 152.188ZM675.156 152.094C675.156 147.406 673.734 143.422 670.891 140.141C667.922 136.703 664.125 134.984 659.5 134.984C655.094 134.984 651.359 136.766 648.297 140.328C645.328 143.766 643.844 147.719 643.844 152.188C643.844 156.969 645.234 160.953 648.016 164.141C650.953 167.484 654.781 169.156 659.5 169.156C663.906 169.156 667.656 167.391 670.75 163.859C673.688 160.484 675.156 156.562 675.156 152.094Z" fill="#F34C0B"/>
</svg>
